HIERARCHY
ROOT Hips
{
 OFFSET 0.000000 0.000000 0.000000
 CHANNELS 6 Xposition Yposition Zposition Yrotation Xrotation Zrotation
 JOINT Chest
 {
  OFFSET 0.000000 9.585900 0.002600
  CHANNELS 3 Yrotation Xrotation Zrotation
  JOINT Chest2
  {
   OFFSET 0.000000 9.601200 -0.005300
   CHANNELS 3 Yrotation Xrotation Zrotation
   JOINT Chest3
   {
    OFFSET 0.000000 9.561800 0.000000
    CHANNELS 3 Yrotation Xrotation Zrotation
    JOINT Chest4
    {
     OFFSET 0.000000 9.552100 0.000000
     CHANNELS 3 Yrotation Xrotation Zrotation
     JOINT Neck
     {
      OFFSET 0.000000 14.453000 0.000000
      CHANNELS 3 Yrotation Xrotation Zrotation
      JOINT Head
      {
       OFFSET 0.000000 8.936500 -0.011300
       CHANNELS 3 Yrotation Xrotation Zrotation
       End Site
       {
        OFFSET 0.000000 17.073600 -0.006000
       }
      }
     }
     JOINT RightCollar
     {
      OFFSET -2.921100 9.558500 0.000000
      CHANNELS 3 Yrotation Xrotation Zrotation
      JOINT RightShoulder
      {
       OFFSET -13.519700 0.000000 0.000000
       CHANNELS 3 Yrotation Xrotation Zrotation
       JOINT RightElbow
       {
        OFFSET 0.000000 -29.696600 0.000000
        CHANNELS 3 Yrotation Xrotation Zrotation
        JOINT RightWrist
        {
         OFFSET 0.000000 -24.004700 0.000000
         CHANNELS 3 Yrotation Xrotation Zrotation
         End Site
         {
          OFFSET 0.000000 -17.728500 0.000000
         }
        }
       }
      }
     }
     JOINT LeftCollar
     {
      OFFSET 2.921100 9.558500 0.000000
      CHANNELS 3 Yrotation Xrotation Zrotation
      JOINT LeftShoulder
      {
       OFFSET 13.519700 0.000000 0.000000
       CHANNELS 3 Yrotation Xrotation Zrotation
       JOINT LeftElbow
       {
        OFFSET 0.000000 -29.696600 0.000000
        CHANNELS 3 Yrotation Xrotation Zrotation
        JOINT LeftWrist
        {
         OFFSET 0.000000 -24.004700 0.000000
         CHANNELS 3 Yrotation Xrotation Zrotation
         End Site
         {
          OFFSET 0.000000 -17.728500 0.000000
         }
        }
       }
      }
     }
    }
   }
  }
 }
 JOINT RightHip
 {
  OFFSET -7.771700 -0.012900 -0.001300
  CHANNELS 3 Yrotation Xrotation Zrotation
  JOINT RightKnee
  {
   OFFSET 0.000000 -40.869800 0.001200
   CHANNELS 3 Yrotation Xrotation Zrotation
   JOINT RightAnkle
   {
    OFFSET 0.000000 -39.717900 0.002100
    CHANNELS 3 Yrotation Xrotation Zrotation
    JOINT RightToe
    {
     OFFSET 0.000000 -4.965400 11.033500
     CHANNELS 3 Yrotation Xrotation Zrotation
     End Site
     {
      OFFSET 0.000000 -1.423100 5.872300
     }
    }
   }
  }
 }
 JOINT LeftHip
 {
  OFFSET 7.771700 -0.012900 -0.001300
  CHANNELS 3 Yrotation Xrotation Zrotation
  JOINT LeftKnee
  {
   OFFSET 0.000000 -40.869800 0.001200
   CHANNELS 3 Yrotation Xrotation Zrotation
   JOINT LeftAnkle
   {
    OFFSET 0.000000 -39.717900 0.002100
    CHANNELS 3 Yrotation Xrotation Zrotation
    JOINT LeftToe
    {
     OFFSET 0.000000 -4.965400 11.033500
     CHANNELS 3 Yrotation Xrotation Zrotation
     End Site
     {
      OFFSET 0.000000 -1.423100 5.872300
     }
    }
   }
  }
 }
}
MOTION
Frames: 5
Frame Time: 0.008333
-15.421159 55.062817 25.389006 -172.443376 -31.670355 -10.447011 -2.052667 13.460788 3.353390 -1.048634 7.794395 1.481329 -1.271966 9.753017 1.830895 -1.057614 7.788050 1.485689 4.523925 20.650734 0.891217 4.654969 -3.686023 -0.078769 2.127129 0.042265 -3.966467 -13.928165 -13.102313 9.119794 -5.838504 -63.140873 15.135591 9.185608 -12.299260 -8.271343 -8.845120 3.634560 -3.281576 8.128976 -3.644454 1.721264 -72.075492 -75.606915 78.487738 13.945440 -11.389954 -17.861262 -19.010976 -34.564733 1.191798 -14.763449 87.965254 -19.764928 -0.239233 -18.719353 4.084559 -0.043329 0.503421 -0.038023 -13.446445 -46.114371 9.836079 174.780829 80.524835 168.567543 -3.396562 -17.183624 4.651849 -0.034633 -0.923735 -0.018960
-15.413059 55.068847 25.400377 -172.453889 -31.711710 -10.449353 -2.065725 13.466904 3.354830 -1.055321 7.799405 1.482138 -1.249726 9.778761 1.825244 -1.080487 7.779887 1.495260 4.491139 20.689054 0.897588 4.630093 -3.634349 -0.071544 2.226411 -0.005456 -3.939672 -13.754439 -13.624766 9.046823 -5.924980 -62.893963 15.200303 9.173138 -12.223939 -8.438848 -8.846923 3.616319 -3.298930 7.947320 -3.786720 1.820059 -71.641774 -75.577719 78.026899 13.932019 -11.356663 -17.831101 -19.027762 -34.532824 1.206835 -14.742989 87.956380 -19.760637 -0.232638 -18.701289 4.076886 -0.041670 0.501947 -0.041038 -13.489648 -46.075935 9.848145 174.755319 80.530221 168.539191 -3.366417 -17.172844 4.612123 -0.033799 -0.925238 -0.021551
-15.404709 55.074639 25.410362 -172.463137 -31.751857 -10.453866 -2.077916 13.472192 3.357418 -1.063216 7.802199 1.482352 -1.257818 9.787115 1.827795 -1.090230 7.777812 1.493413 4.466308 20.745961 0.901357 4.603018 -3.570124 -0.061694 2.337836 -0.034670 -3.912037 -13.567288 -14.166243 8.953102 -6.094444 -62.634116 15.347571 9.146123 -12.223214 -8.588413 -8.880625 3.561892 -3.325655 7.818587 -3.861803 1.917418 -71.341829 -75.566559 77.706390 13.943178 -11.334015 -17.779526 -19.021003 -34.501545 1.194533 -14.393954 87.951575 -19.389931 -0.223049 -18.687079 4.050546 -0.037092 0.502040 -0.043792 -13.508136 -46.039156 9.863303 174.757235 80.534640 168.538187 -3.357954 -17.162980 4.602263 -0.032987 -0.927224 -0.029885
-15.396863 55.080236 25.418788 -172.468812 -31.791786 -10.458629 -2.092185 13.477737 3.357592 -1.055030 7.820331 1.482276 -1.315293 9.749636 1.836731 -1.081341 7.795799 1.487763 4.445751 20.818055 0.900434 4.570203 -3.497467 -0.050598 2.458791 -0.047279 -3.888349 -13.367242 -14.733593 8.839908 -6.287117 -62.356011 15.521213 9.108360 -12.276013 -8.735852 -8.901013 3.512262 -3.367443 7.702025 -3.911917 2.016348 -71.195973 -75.561216 77.540132 13.974691 -11.330318 -17.710366 -19.017483 -34.468930 1.186291 -14.319469 87.946606 -19.302110 -0.208352 -18.675715 4.028332 -0.037368 0.503202 -0.039489 -13.512933 -46.002967 9.867954 174.771092 80.539130 168.555968 -3.349156 -17.155354 4.590993 -0.034556 -0.928442 -0.032867
-15.389209 55.084427 25.427659 -172.477363 -31.818122 -10.461399 -2.107809 13.471503 3.356449 -1.043954 7.835764 1.483714 -1.311162 9.758844 1.835251 -1.119295 7.773990 1.501767 4.409615 20.884803 0.904919 4.530868 -3.422383 -0.037450 2.569212 -0.061504 -3.864448 -13.144442 -15.331914 8.705884 -6.482274 -62.064198 15.689535 9.063680 -12.356640 -8.887028 -8.917024 3.468082 -3.407792 7.591090 -3.956023 2.114369 -71.208299 -75.546980 77.525808 14.021127 -11.352143 -17.604105 -19.053332 -34.452131 1.196917 -14.130924 87.944942 -19.122816 -0.190612 -18.661916 4.000667 -0.036919 0.501636 -0.037255 -13.524156 -45.980499 9.855276 174.787408 80.545933 168.598064 -3.322926 -17.159464 4.549919 -0.031628 -0.917467 -0.026910
